<svg version="1" xmlns="http://www.w3.org/2000/svg" width="2010.667" height="2010.667" viewBox="0 0 1508.000000 1508.000000"><path d="M711 1.7C473.9 15.2 256.6 140.3 125.6 338.8c-66.2 100.3-107 213.1-120 331.7-3.3 30.1-4 45-4 83.5 0 47 1.7 72.3 8 113.9 29.7 197.8 138.7 376.9 301.9 495.7 116.4 84.8 253.1 133.7 398.3 142.5 39.2 2.4 100.2.3 140.2-4.7 192.9-24.2 370.3-123.8 492.5-276.4 87.3-109.1 141.9-237.7 159.4-376 4.2-32.9 5.5-54.9 5.5-95s-1.3-61.9-5.5-95C1473 430 1340.1 226.5 1142 107.8 1037.8 45.3 924.7 10.1 802.5 2 789 1.1 724.8.9 711 1.7zm51.8 119.9c4.7 1.9 8.8 5.8 11.5 10.9l2.2 4v168l-2.2 4c-7.6 14.1-24.2 16.8-35.6 5.7-6.9-6.7-6.7-4.2-6.7-93.4 0-55 .3-81.3 1.1-84.3 1.4-5.5 7-12.2 12.3-14.6 5-2.3 12.4-2.4 17.4-.3zM310.7 236.5c3.3 1 6.4 2.8 8.7 5.3 3.7 3.8 73.8 113.1 76.2 118.9.8 1.8 1.4 5.6 1.4 8.5-.1 20-24.1 29.3-37.6 14.7-4.5-4.9-74.5-115.4-76.2-120.3-3.1-9 1.7-20.8 10.3-25.4 6.3-3.3 10.5-3.7 17.2-1.7zm968.2 51.8c6.1 4.1 9.2 9.4 9.8 16.9.4 5.2.1 7.1-1.9 10.8-1.3 2.5-25.7 35.3-54.3 72.9-35.6 46.8-53.2 69.2-55.8 70.9-4.6 3.1-13.5 4.1-19.2 2.2-12-4-18-18.8-12.2-30.1 2.9-5.6 103.8-138.5 107.8-142 4.1-3.6 8.3-4.8 15.5-4.6 4.8.2 7.1.9 10.3 3zM969.5 416.4c6.5 3.1 11.7 8.6 15.1 16.1 3.9 8.5 4.1 17.4 1 51-1.4 15.5-3.3 45.6-4.1 67-.9 21.5-2 43.5-2.5 49-.6 5.5-1.3 14.7-1.7 20.5l-.6 10.6 3.2 2.7c5.3 4.4 10.1 3.8 25.1-3.2 20.4-9.7 31.8-10.9 47.1-5.2 14.2 5.4 28.2 18.6 37.3 35.3 5.1 9.1 9.1 20.7 13.7 38.8 2.3 8.9 4.6 16.2 5.7 17.2.9 1 3.1 2 4.8 2.4 3.9.8 8.3-2.7 10.9-8.8 3.1-6.8 17.8-33.8 21.4-39.1 5.4-7.8 15.3-13.3 27.2-15.1 11.4-1.7 28.2 4.5 36 13.2 7.7 8.7 11.1 18.9 12.9 38.6.6 6.6 1.9 15.9 3 20.8 2.4 11.1 13.6 49.1 15.5 52.8 3.4 6.5 11.6 8.2 16.1 3.3 4.2-4.5 8.1-20.2 12.9-52.8 4-26.7 5.3-33.8 9.6-51.9 4.8-20.4 7.5-26.7 13.2-30.4 3.7-2.5 4.9-2.7 13.6-2.7 8.5 0 10.3.3 15.3 2.8 6.1 3 11 8.2 14.7 15.4 7.1 14.1 11.3 49 13 108.8 1.1 36.2 1.9 41.6 8.1 54.1 5.2 10.7 12.6 18.2 27 27.6 6.3 4.1 12.1 8.2 12.8 9 2.2 2.8 2.6 8.2.7 11.7-2.5 4.9-8.4 7.1-20.8 7.8-25.5 1.4-45.5-9.9-56-31.8-2.4-5.2-5.3-11.4-6.3-13.8-2.2-5.4-5.6-7.8-8.7-6.4-2.2 1-3.8 3.9-11.5 20.3-5.5 11.7-16.7 21-30.7 25.7-6.9 2.3-9.7 2.7-20 2.7s-13.1-.4-20-2.7c-8.7-2.9-17.8-8-25-14-13.2-11.1-27.9-39.5-33-63.6-.8-4.1-3.1-19.6-5.1-34.5-2-14.9-4-30-4.4-33.6-.5-3.6-.9-7.2-1-8 0-2.4-2.1 1.2-14.3 25-10.5 20.4-20.6 44.1-29.8 70-5.8 16-12.3 20.6-25.8 18-6.4-1.2-11.4-4.7-14-9.8-2.3-4.6-5.5-18.9-18.1-81.9-5.5-27-10.6-50.5-11.4-52.1-3.5-6.8-8.3-4.6-21.7 10.1-14.1 15.5-21 26.2-25.3 39.4-1 2.8-3.7 8.7-6.2 13-7.5 13.2-9.5 21.5-11.5 49.2-1.1 15.5-.8 39.1.7 61.2.9 11.9-.4 15.5-6.4 18.1-12.7 5.7-34.8-4.3-38.2-17.1-.5-2-1.1-9.9-1.3-17.6-.4-12.6-2.7-37.4-4.5-48.2l-.7-4.1-13 11c-7.1 6-16.5 14.4-20.8 18.6-7.7 7.6-9.9 10.2-27.2 33.7-15.2 20.6-33 37.5-45.5 43.4-21.2 10.1-51.3 3.9-69.5-14.3-10.5-10.5-13.1-16.6-17.7-42.3-2-11.2-2.3-16.1-2.3-39.3 0-23.3.3-28 2.4-39.5 3.9-21.8 11.6-48.7 17.3-60 8.9-17.6 25.7-31 47.4-37.8 16.4-5.2 28.6-4.5 42.4 2.4 9.5 4.8 18.4 13.8 22.8 23.1 4.1 8.5 10.2 27.2 10.9 33 .5 4.3.3 5-2.6 7.9-3.1 3.1-3.4 3.1-10.4 2.7-8.8-.6-11.5-1.9-20.6-10.3-13.1-12-15.4-9.4-20.9 23-2.4 14.1-2.7 18.5-2.6 37 .1 19.8 2.5 49 4.2 50.7 1 1 68.5-57.2 84.7-73.1 7.7-7.5 15.5-14.3 17.3-15.1l3.4-1.3-.6-6.1c-.4-3.4-1.3-16.5-2.1-29.1-.9-12.7-2.6-36.1-4-52-4.7-55.5-4.9-60.9-5-121-.2-52.3-.4-59.5-1.8-63.4-4.3-11.2 0-26.9 11.8-43.6 6-8.4 16.4-17.9 21.7-19.8 6.9-2.4 17.3-2.1 23.3.7zm-563 76.6c13.5 3.4 26.9 12.7 38.1 26.1 11.9 14.2 17.6 26.9 18.9 42.4.3 4.4 1.8 16.3 3.1 26.5 1.7 12.5 2.7 24.9 2.9 38.5.4 17.7.9 22.8 4.6 44.5l4.1 24.5.5 33.4c.6 35.5-.4 57.5-3.7 83.8-7.6 59.6-28.1 121.3-63.7 191.6-20.6 40.6-43.1 68.1-75.2 92-16.4 12.3-25.2 16.4-41.1 19.7-20.3 4.1-49.6 1.5-74-6.6-19.6-6.5-33.8-15.8-42-27.4-9.9-14.2-7.8-24.6 6.5-31.5 7.2-3.5 12.2-4 18.9-2.1 5 1.5 7.1 3 15.9 11.5 9.6 9.1 10.6 9.9 17.2 11.7 5.2 1.4 10.2 1.9 19.6 1.9h12.6l8.4-4.2c25.7-13 51.7-38.8 64.2-63.8 7.5-15.2 11.2-29.1 17.1-65 6.4-39.1 10.5-77.9 12.7-120.5 1.5-28.5.6-104-1.6-144-4.9-90.2-5.4-96.5-7.2-103.3-1-3.7-2-6.7-2.3-6.7-.3.1-17.8 14.7-39 32.6-21.2 18-43.4 35.9-49.5 39.9-26.5 17.7-57 30.7-102.3 43.5-21.1 6.1-27 7.1-34.2 5.9-11.2-1.8-28.9-13.3-32-20.9-1.7-4.1-.7-10.6 2.1-13.6 3.6-3.8 9.5-6.1 22.9-8.9 25-5.3 53.2-16.2 79-30.6 32-17.9 51.3-32.2 107-79.4 44.3-37.6 66.9-47.8 91.5-41.5zm272.6 239.7c5.4 2.4 10.8 7.5 14.3 13.5 7.9 13.7 12.6 50.7 12.6 100.3 0 39 1.7 52.2 8.6 66.3 4.9 10 12.7 18.1 26.2 27 12.6 8.2 15.6 11.7 14.8 17.1-1.2 8-8.9 11.5-25.1 11.5-18.1 0-29.8-4.7-41.5-16.4-7.7-7.7-12.6-15.9-16.4-27.6-2.2-6.8-5.7-10.1-9.2-8.8-2.6.9-5.4 5.4-11.5 18.9-4.2 9.1-13.7 18.8-23 23.2-22.3 10.9-50.1 7.4-70.5-8.8-14.7-11.7-28.2-36.1-34.5-62.5-1.7-7.2-7.5-51.6-10-76.4-.5-5.2-1.4-14.2-2-19.8-.5-5.7-2.2-14.7-3.6-20-4-15.2-4.1-17.3-.3-21 12.5-12.6 34.5-14.7 50.9-4.9 13.7 8.2 19.7 21.1 21.6 46.2.9 13 3.7 26.2 10.6 50.5 6.4 22.6 8.2 26.9 12.4 28.8 3.4 1.6 5 1.5 8.6-.4 5.8-3 9.2-15.1 16.4-58.7 6.3-38.1 12.7-64.5 17.7-72.4 4.1-6.5 9-8.5 19.8-8 5.8.2 10 1 13.1 2.4zm489.4 300.3c2.2 1 4.7 2.5 5.6 3.2 4.6 3.9 115.8 133 117.6 136.7 7.4 14.4-3.2 31-19.6 31.1-10.5 0-8.7 1.8-71.7-70.6-31.8-36.6-58.9-68.4-60.1-70.6-4.6-8.3-2.1-20.7 5.3-26.6 6.7-5.4 15.8-6.6 22.9-3.2zm-742.1 84.2c8.9 2.7 15.5 13.2 14.4 23.1-.7 5.4-57.1 145.1-60.5 149.6-1.4 1.8-4.9 4.4-7.7 5.7-9.1 4.3-17.5 2.7-24.7-4.5-5.7-5.7-8-13.4-6-20.1 2.4-8.1 57.3-142.6 59.6-146.1 2.9-4.5 11.3-8.9 16.8-8.9 2.2 0 5.8.6 8.1 1.2zm344.2 42.3c3.1.9 6.3 2.8 8.6 5.2 7.2 7.4 6.8 1.1 6.8 102.8s.4 95.4-6.8 102.8c-11.1 11.4-31.4 6.2-36.1-9.2-1.6-5.4-1.6-182.4 0-187.2 2.4-7 7.3-11.9 14.7-14.5 4.8-1.7 6.8-1.7 12.8.1z"/></svg>